<svg width="32" height="32" viewBox="0 0 32 32" fill="none" xmlns="http://www.w3.org/2000/svg">
<mask id="mask0_773_401" style="mask-type:alpha" maskUnits="userSpaceOnUse" x="0" y="0" width="32" height="32">
<rect width="32" height="32" fill="#C4C4C4"/>
</mask>
<g mask="url(#mask0_773_401)">
<path fill-rule="evenodd" clip-rule="evenodd" d="M24.4525 7.4842C24.0619 7.09367 23.4288 7.09367 23.0382 7.4842L15.9012 14.6212L8.83125 7.55122C8.44073 7.1607 7.80756 7.1607 7.41704 7.55122C7.02652 7.94175 7.02652 8.57491 7.41704 8.96544L14.487 16.0354L7.48482 23.0376C7.09429 23.4281 7.09429 24.0613 7.48482 24.4518C7.87534 24.8424 8.50851 24.8424 8.89903 24.4518L15.9012 17.4496L22.9727 24.5211C23.3632 24.9116 23.9964 24.9116 24.3869 24.5211C24.7774 24.1305 24.7774 23.4974 24.3869 23.1068L17.3154 16.0354L24.4525 8.89841C24.843 8.50789 24.843 7.87472 24.4525 7.4842Z" fill="#F4F9FD"/>
</g>
</svg>
