<svg width="80" height="80" viewBox="0 0 80 80" fill="none" xmlns="http://www.w3.org/2000/svg">
<path d="M61.2413 9C64.8735 9 67.803 11.9372 67.9761 15.3937V71L61.0605 65.1281L57.263 61.6716L53.1193 58.0601L54.8502 63.7563H18.5853C14.9635 63.7563 12.0237 61.0051 12.0237 57.36V15.4067C12.0237 11.9502 14.9687 9.00775 18.5983 9.00775H61.2233L61.2413 9ZM45.4365 23.6811H45.359L44.8372 24.1978C50.1924 25.7477 52.7835 28.1683 52.7835 28.1683C49.3322 26.4427 46.2218 25.5798 43.1115 25.2311C40.864 24.8823 38.6165 25.0658 36.7178 25.2311H36.2011C34.9869 25.2311 32.4036 25.7477 28.9419 27.1298C27.7355 27.6542 27.0432 27.9978 27.0432 27.9978C27.0432 27.9978 29.6317 25.4093 35.3357 24.0273L34.9869 23.6785C34.9869 23.6785 30.6676 23.5132 26.0047 26.9593C26.0047 26.9593 21.3418 35.0813 21.3418 45.0943C21.3418 45.0943 23.9251 49.5893 31.0112 49.7598C31.0112 49.7598 32.0445 48.3829 33.0908 47.1713C29.1124 45.9623 27.5624 43.5443 27.5624 43.5443C27.5624 43.5443 27.9086 43.7148 28.4278 44.061H28.5828C28.6603 44.061 28.6965 44.0998 28.7378 44.1385V44.154C28.7792 44.1953 28.8153 44.2315 28.8928 44.2315C29.7453 44.5828 30.5978 44.929 31.2953 45.2648C32.787 45.9034 34.3473 46.368 35.9453 46.6495C38.3478 46.9982 41.1017 47.1662 44.2378 46.6495C45.7878 46.3007 47.3378 45.9597 48.8878 45.2674C49.8953 44.7507 51.1353 44.2341 52.4968 43.3635C52.4968 43.3635 50.9468 45.7815 46.8005 46.9905C47.653 48.1943 48.8543 49.5738 48.8543 49.5738C55.9429 49.4188 58.6968 44.9238 58.8518 45.115C58.8518 35.1175 54.163 26.98 54.163 26.98C49.9393 23.8438 45.9868 23.725 45.2893 23.725L45.4339 23.6733L45.4365 23.6811ZM45.8705 35.0813C47.6866 35.0813 49.1513 36.6313 49.1513 38.5301C49.1513 40.4417 47.6788 41.9917 45.8705 41.9917C44.0622 41.9917 42.5897 40.4417 42.5897 38.5456C42.5948 36.6339 44.0699 35.0891 45.8705 35.0891V35.0813ZM34.1344 35.0813C35.9428 35.0813 37.4049 36.6313 37.4049 38.5301C37.4049 40.4417 35.9324 41.9917 34.1241 41.9917C32.3158 41.9917 30.8433 40.4417 30.8433 38.5456C30.8433 36.6339 32.3158 35.0891 34.1241 35.0891L34.1344 35.0813Z" fill="white"/>
</svg>
