<svg width="138" height="528" viewBox="0 0 138 528" fill="none" xmlns="http://www.w3.org/2000/svg">
<mask id="path-1-inside-1_819_94" fill="white">
<path d="M528 264C528 409.803 409.803 528 264 528C118.197 528 0 409.803 0 264C0 118.197 118.197 0 264 0C409.803 0 528 118.197 528 264ZM87.8393 264C87.8393 361.291 166.709 440.161 264 440.161C361.291 440.161 440.161 361.291 440.161 264C440.161 166.709 361.291 87.8393 264 87.8393C166.709 87.8393 87.8393 166.709 87.8393 264Z"/>
</mask>
<path d="M528 264C528 409.803 409.803 528 264 528C118.197 528 0 409.803 0 264C0 118.197 118.197 0 264 0C409.803 0 528 118.197 528 264ZM87.8393 264C87.8393 361.291 166.709 440.161 264 440.161C361.291 440.161 440.161 361.291 440.161 264C440.161 166.709 361.291 87.8393 264 87.8393C166.709 87.8393 87.8393 166.709 87.8393 264Z" stroke="#171941" stroke-width="400" mask="url(#path-1-inside-1_819_94)"/>
</svg>
