<svg width="160" height="160" viewBox="0 0 160 160" fill="none" xmlns="http://www.w3.org/2000/svg">
<path d="M80.4549 36.7028L121.415 58.6456V102.531L80.4549 124.474L39.4949 102.531V58.6456L80.4549 36.7028ZM80.4549 54.257L55.5863 67.4228V93.7542L80.4549 106.92L105.323 93.7542V67.4228L80.4549 54.257Z" fill="#72E2FF"/>
<path d="M80.4549 63.7656L95.8149 71.8113V88.6342L80.4549 97.4113L65.0949 88.6342V72.5428L80.4549 63.7656ZM77.5292 57.9142V45.4799C73.8721 44.0171 71.6778 39.6285 73.1406 35.9713C74.6035 31.5828 78.9921 29.3885 82.6492 30.8513C86.3064 32.3142 88.5006 36.7028 87.0378 40.3599C86.3063 42.5542 84.8435 44.7485 82.6492 45.4799V58.6456C81.1864 57.9142 79.7235 57.9142 77.5292 57.9142ZM98.7406 67.4228L113.369 59.3771C112.638 54.9885 115.563 51.3313 119.952 51.3313C124.341 51.3313 127.998 53.5256 127.998 57.9142C127.998 62.3028 125.803 65.9599 121.415 65.9599C119.221 65.9599 117.026 65.2285 115.563 63.7656L100.935 71.8113L98.7406 67.4228ZM100.935 89.3656L114.832 97.4113C117.758 94.4856 122.878 94.4856 125.072 97.4113C127.266 100.337 127.998 105.457 125.072 107.651C122.146 110.577 117.026 110.577 114.832 107.651C113.369 106.188 112.638 103.994 112.638 101.8L98.0092 93.7542C99.4721 92.2913 100.203 90.8285 100.935 89.3656ZM82.6492 102.531V115.697C86.3064 117.16 88.5006 121.548 87.0378 125.206C85.5749 128.863 81.1863 131.057 77.5292 129.594C73.8721 128.863 71.6778 124.474 73.1406 120.817C73.8721 118.623 75.3349 117.16 77.5292 116.428V102.531C79.7235 103.263 81.1864 103.263 82.6492 102.531ZM62.1692 93.7542L47.5406 101.8C48.2721 106.188 45.3463 109.846 40.9578 109.846C36.5692 110.577 32.9121 107.651 32.9121 103.263C32.1806 99.6056 35.1063 95.9485 39.4949 95.2171C41.6892 95.2171 43.8835 95.9485 45.3463 97.4113L59.2435 89.3656C60.7063 90.8285 61.4378 92.2913 62.1692 93.7542ZM59.9749 71.8113L45.3463 63.0342C42.4206 65.9599 38.0321 65.9599 35.1063 63.0342C32.1806 60.1085 32.1806 54.9885 35.1063 52.7942C38.0321 50.5999 43.1521 49.8685 45.3463 52.7942C47.5406 54.2571 48.2721 56.4513 47.5406 58.6456L62.1692 66.6913C61.4378 68.8856 60.7063 70.3485 59.9749 71.8113Z" fill="#304FFD"/>
<circle cx="80" cy="80" r="79" stroke="#304FFD" stroke-width="2"/>
</svg>
