<svg width="160" height="160" viewBox="0 0 160 160" fill="none" xmlns="http://www.w3.org/2000/svg">
<circle cx="80" cy="80" r="79" stroke="#304FFD" stroke-width="2"/>
<path d="M99.4 55.4C114.6 55.4 126 50 128 44.8C128 38.2 114.6 33.4 99.4 33.4C83.4 33.4 70 38 70 44.8C72 50 83.4 55.4 99.4 55.4ZM92.8 98V112.6H99.4C115.4 112.6 128 108.6 128 103.2V91.2C121.4 95.8 111.4 98.6 99.4 98.6C97.4 98.6 94.8 98.6 92.8 98ZM92.8 78.6V93.2C94.8 93.2 97.4 93.8 99.4 93.8C114.8 93.8 126 88.4 128 83.2V72C121.4 76.6 111.4 79.4 99.4 79.4C97.4 79.4 94.8 79.4 92.8 78.6ZM98.6 74.6C114 74.6 125.2 69.2 127.2 64V52.6C121.2 56.6 111.2 60 99.2 60C86.6 60 76.6 56.6 69.8 52.6V60C83.2 61.4 95.2 66 95.8 74.6H98.6Z" fill="#72E2FF"/>
<path d="M60.6 85.4C76 85.4 87.2 80 89.2 74.8C89.2 68.8 76.6 63.4 60.6 63.4C45.4 64 32 68.6 32 74.6C34 80.6 45.4 85.4 60.6 85.4ZM32 84V96C34 101.4 45.4 106.6 60.6 106.6C76 106.6 87.2 101.2 89.2 96V84C83.2 88.6 73.2 91.4 60.6 91.4C48 91.4 38.6 88.6 32 84ZM32 105.2V117.2C32 122.6 45.4 126.6 60.6 126.6C76 126.6 89.2 122.6 89.2 117.2V105.2C83.2 109.2 73.2 112.6 60.6 112.6C48.6 112.6 38 110 32 105.2Z" fill="#304FFD"/>
</svg>
