<svg width="120" height="120" viewBox="0 0 120 120" fill="none" xmlns="http://www.w3.org/2000/svg">
<circle cx="60" cy="60" r="60" fill="#304FFD" fill-opacity="0.1"/>
<path d="M52.0263 60.422C52.0263 62.0816 52.5185 63.7039 53.4405 65.0838C54.3625 66.4637 55.673 67.5392 57.2062 68.1743C58.7395 68.8094 60.4267 68.9755 62.0543 68.6518C63.682 68.328 65.1772 67.5288 66.3507 66.3553C67.5242 65.1818 68.3233 63.6867 68.6471 62.059C68.9709 60.4313 68.8047 58.7442 68.1696 57.2109C67.5345 55.6777 66.459 54.3672 65.0791 53.4451C63.6992 52.5231 62.0769 52.031 60.4173 52.031C59.3154 52.031 58.2243 52.248 57.2062 52.6697C56.1882 53.0914 55.2632 53.7095 54.484 54.4887C53.7048 55.2678 53.0868 56.1929 52.6651 57.2109C52.2434 58.229 52.0263 59.3201 52.0263 60.422Z" fill="#72E2FF"/>
<path d="M92.5586 55.6265C92.5071 55.6252 92.4559 55.6351 92.4086 55.6555V55.6265H88.8131C87.8126 49.7321 85.0026 44.2952 80.7729 40.0698C76.5432 35.8444 71.1034 33.04 65.208 32.0455V28.4259H65.1693C65.1885 28.378 65.1999 28.3273 65.2032 28.2758C65.2032 27.4919 63.0498 26.8531 60.4028 26.8531C57.7558 26.8531 55.6072 27.4919 55.6072 28.2758C55.6055 28.3274 55.6154 28.3787 55.6363 28.4259H55.6121V32.0455C49.7207 33.0444 44.2861 35.8516 40.0617 40.0777C35.8373 44.3038 33.0325 49.7396 32.036 55.6313H28.4018V55.6603C28.352 55.653 28.3015 55.653 28.2518 55.6603C27.4678 55.6603 26.8388 57.8137 26.8533 60.4656C26.8678 63.1174 27.5114 65.2611 28.305 65.2563C28.3553 65.2557 28.4048 65.2442 28.4502 65.2224V65.2563H32.0601C33.0648 71.1388 35.8728 76.5637 40.0957 80.7805C44.3185 84.9973 49.7474 87.7974 55.6314 88.7937V92.4133H55.6604C55.6429 92.4615 55.6331 92.5121 55.6314 92.5633C55.6314 93.3473 57.78 93.986 60.427 93.986C63.074 93.986 65.2225 93.3473 65.2225 92.5633C65.2237 92.5118 65.2138 92.4606 65.1935 92.4133H65.2225V88.7937C71.1152 87.7964 76.5518 84.9908 80.7787 80.7656C85.0056 76.5405 87.8135 71.105 88.8131 65.2127H92.4231V65.1885C92.4719 65.2035 92.5222 65.2133 92.5731 65.2176C93.3571 65.2176 93.9958 63.069 93.9958 60.422C93.9958 57.775 93.3571 55.6265 92.5731 55.6265H92.5586ZM60.4076 76.9621C57.0889 76.9601 53.8452 75.9743 51.0867 74.1291C48.3281 72.2839 46.1787 69.6622 44.91 66.5955C43.6413 63.5289 43.3103 60.1549 43.9589 56.9001C44.6076 53.6454 46.2066 50.656 48.554 48.31C50.9014 45.9639 53.8917 44.3666 57.1468 43.7198C60.402 43.073 63.7758 43.4059 66.8417 44.6764C69.9077 45.9469 72.5281 48.0979 74.3717 50.8575C76.2153 53.617 77.1993 56.8613 77.1993 60.18C77.1993 62.3847 76.7649 64.5678 75.9209 66.6045C75.0769 68.6412 73.8399 70.4917 72.2805 72.0501C70.7212 73.6086 68.87 74.8446 66.8328 75.6874C64.7956 76.5302 62.6123 76.9633 60.4076 76.9621Z" fill="#304FFD"/>
</svg>
