<svg width="121" height="120" viewBox="0 0 121 120" fill="none" xmlns="http://www.w3.org/2000/svg">
<circle cx="60.5" cy="60" r="60" fill="#304FFD" fill-opacity="0.1"/>
<g clip-path="url(#clip0_0_58)">
<path d="M63.6533 55.4415L61.975 57.1198C60.896 58.1988 60.896 59.8771 61.975 60.9561L66.1709 65.2719C67.2498 66.3508 68.9282 66.3508 70.0071 65.2719L81.5159 54.0029C82.5948 52.9239 82.5948 51.2456 81.5159 50.1666L77.32 45.8508C76.241 44.7719 74.5627 44.7719 73.4837 45.8508L71.8054 47.5292L62.2147 37.8187L63.8931 36.1403C64.972 35.0614 64.972 33.383 63.8931 32.3041L59.6972 27.9883C58.6182 26.9093 56.9399 26.9093 55.8609 27.9883L44.3522 39.2573C43.2732 40.3362 43.2732 42.0146 44.3522 43.0935L48.5481 47.4093C49.627 48.4883 51.3054 48.4883 52.3843 47.4093L54.0627 45.731L54.6621 46.3304L32.4838 68.0292C32.4838 68.0292 28.6475 73.1841 31.6446 76.1812C36.2001 80.7368 41.1153 76.6608 41.1153 76.6608L62.934 54.8421L63.6533 55.4415Z" fill="#72E2FF"/>
<path d="M88.2293 82.2953H82.2352V77.8597C82.2352 77.1404 81.0363 76.6608 79.4779 76.6608H78.1591V74.0234C78.1591 72.4649 76.9603 71.2661 75.4018 71.2661H52.1445C50.5861 71.2661 49.3872 72.4649 49.3872 74.0234V76.6608H48.3083C46.7498 76.6608 45.551 77.2603 45.551 77.8597V82.2953H38.7177C37.3989 82.2953 36.4399 83.3743 36.4399 84.5731C36.4399 85.8918 37.5188 86.8509 38.7177 86.8509H88.1094C89.4281 86.8509 90.3872 85.7719 90.3872 84.5731C90.5071 83.3743 89.4281 82.2953 88.2293 82.2953Z" fill="#304FFD"/>
</g>
<defs>
<clipPath id="clip0_0_58">
<rect width="60" height="60" fill="white" transform="translate(30.5 27)"/>
</clipPath>
</defs>
</svg>
