<svg width="160" height="160" viewBox="0 0 160 160" fill="none" xmlns="http://www.w3.org/2000/svg">
<circle cx="80" cy="80" r="80" fill="#304FFD" fill-opacity="0.1"/>
<path d="M80.4551 36.7028L121.415 58.6456V102.531L80.4551 124.474L39.4951 102.531V58.6456L80.4551 36.7028ZM80.4551 54.257L55.5865 67.4228V93.7542L80.4551 106.92L105.324 93.7542V67.4228L80.4551 54.257Z" fill="#72E2FF"/>
<path d="M80.4547 63.7656L95.8147 71.8113V88.6342L80.4547 97.4113L65.0947 88.6342V72.5428L80.4547 63.7656ZM77.529 57.9142V45.4799C73.8718 44.0171 71.6775 39.6285 73.1404 35.9713C74.6032 31.5828 78.9918 29.3885 82.649 30.8513C86.3061 32.3142 88.5004 36.7028 87.0375 40.3599C86.3061 42.5542 84.8433 44.7485 82.649 45.4799V58.6456C81.1861 57.9142 79.7232 57.9142 77.529 57.9142ZM98.7404 67.4228L113.369 59.3771C112.638 54.9885 115.563 51.3313 119.952 51.3313C124.34 51.3313 127.998 53.5256 127.998 57.9142C127.998 62.3028 125.803 65.9599 121.415 65.9599C119.22 65.9599 117.026 65.2285 115.563 63.7656L100.935 71.8113L98.7404 67.4228ZM100.935 89.3656L114.832 97.4113C117.758 94.4856 122.878 94.4856 125.072 97.4113C127.266 100.337 127.998 105.457 125.072 107.651C122.146 110.577 117.026 110.577 114.832 107.651C113.369 106.188 112.638 103.994 112.638 101.8L98.009 93.7542C99.4718 92.2913 100.203 90.8285 100.935 89.3656ZM82.649 102.531V115.697C86.3061 117.16 88.5004 121.548 87.0375 125.206C85.5747 128.863 81.1861 131.057 77.529 129.594C73.8718 128.863 71.6775 124.474 73.1404 120.817C73.8718 118.623 75.3347 117.16 77.529 116.428V102.531C79.7232 103.263 81.1861 103.263 82.649 102.531ZM62.169 93.7542L47.5404 101.8C48.2718 106.188 45.3461 109.846 40.9575 109.846C36.569 110.577 32.9118 107.651 32.9118 103.263C32.1804 99.6056 35.1061 95.9485 39.4947 95.2171C41.689 95.2171 43.8832 95.9485 45.3461 97.4113L59.2432 89.3656C60.7061 90.8285 61.4375 92.2913 62.169 93.7542ZM59.9747 71.8113L45.3461 63.0342C42.4204 65.9599 38.0318 65.9599 35.1061 63.0342C32.1804 60.1085 32.1804 54.9885 35.1061 52.7942C38.0318 50.5999 43.1518 49.8685 45.3461 52.7942C47.5404 54.2571 48.2718 56.4513 47.5404 58.6456L62.169 66.6913C61.4375 68.8856 60.7061 70.3485 59.9747 71.8113Z" fill="#304FFD"/>
</svg>
