<svg width="160" height="160" viewBox="0 0 160 160" fill="none" xmlns="http://www.w3.org/2000/svg">
<circle cx="80" cy="80" r="80" fill="#304FFD" fill-opacity="0.1"/>
<path d="M98.1538 57.114C111.986 57.114 122.36 52.2 124.18 47.468C124.18 41.462 111.986 37.094 98.1538 37.094C83.5938 37.094 71.3998 41.28 71.3998 47.468C73.2198 52.2 83.5938 57.114 98.1538 57.114ZM92.1478 95.88V109.166H98.1538C112.714 109.166 124.18 105.526 124.18 100.612V89.692C118.174 93.878 109.074 96.426 98.1538 96.426C96.3338 96.426 93.9678 96.426 92.1478 95.88ZM92.1478 78.226V91.512C93.9678 91.512 96.3338 92.058 98.1538 92.058C112.168 92.058 122.36 87.144 124.18 82.412V72.22C118.174 76.406 109.074 78.954 98.1538 78.954C96.3338 78.954 93.9678 78.954 92.1478 78.226ZM97.4258 74.586C111.44 74.586 121.632 69.672 123.452 64.94V54.566C117.992 58.206 108.892 61.3 97.9718 61.3C86.5058 61.3 77.4058 58.206 71.2178 54.566V61.3C83.4118 62.574 94.3318 66.76 94.8778 74.586H97.4258Z" fill="#72E2FF"/>
<path d="M62.8461 84.414C76.8601 84.414 87.0521 79.5 88.8721 74.768C88.8721 69.308 77.4061 64.394 62.8461 64.394C49.0141 64.94 36.8201 69.126 36.8201 74.586C38.6401 80.046 49.0141 84.414 62.8461 84.414ZM36.8201 83.14V94.06C38.6401 98.974 49.0141 103.706 62.8461 103.706C76.8601 103.706 87.0521 98.792 88.8721 94.06V83.14C83.4121 87.326 74.3121 89.874 62.8461 89.874C51.3801 89.874 42.8261 87.326 36.8201 83.14ZM36.8201 102.432V113.352C36.8201 118.266 49.0141 121.906 62.8461 121.906C76.8601 121.906 88.8721 118.266 88.8721 113.352V102.432C83.4121 106.072 74.3121 109.166 62.8461 109.166C51.9261 109.166 42.2801 106.8 36.8201 102.432Z" fill="#304FFD"/>
</svg>
