<svg width="98" height="30" viewBox="0 0 98 30" fill="none" xmlns="http://www.w3.org/2000/svg">
<path d="M45.3107 12.5842C45.3107 13.4711 45.0959 14.2854 44.6661 15.0269C44.2364 15.7539 43.5764 16.3428 42.6863 16.7935C41.7961 17.2443 40.6911 17.4696 39.3712 17.4696H36.9309V22.9657H32.9941V7.65511H39.3712C40.6604 7.65511 41.7501 7.86594 42.6402 8.2876C43.5304 8.70926 44.198 9.29086 44.6431 10.0324C45.0882 10.7739 45.3107 11.6245 45.3107 12.5842ZM39.0719 14.5035C39.8239 14.5035 40.3841 14.3362 40.7525 14.0018C41.1208 13.6674 41.305 13.1949 41.305 12.5842C41.305 11.9735 41.1208 11.5009 40.7525 11.1665C40.3841 10.8321 39.8239 10.6649 39.0719 10.6649H36.9309V14.5035H39.0719Z" fill="white"/>
<path d="M57.4207 20.2613H51.389L50.4221 22.9657H46.3012L52.1487 7.65511H56.707L62.5545 22.9657H58.3876L57.4207 20.2613ZM56.4077 17.3824L54.4049 11.7772L52.425 17.3824H56.4077Z" fill="white"/>
<path d="M79.5055 7.65511L73.7731 22.9657H68.8465L63.1141 7.65511H67.304L71.3098 19.2144L75.3386 7.65511H79.5055Z" fill="white"/>
<path d="M88.7941 23.1184C87.2746 23.1184 85.878 22.784 84.6041 22.1152C83.3456 21.4463 82.3403 20.5158 81.5883 19.3235C80.8516 18.1167 80.4832 16.7644 80.4832 15.2668C80.4832 13.7692 80.8516 12.4242 81.5883 11.232C82.3403 10.0397 83.3456 9.10911 84.6041 8.44027C85.878 7.77143 87.2746 7.43701 88.7941 7.43701C90.3135 7.43701 91.7025 7.77143 92.961 8.44027C94.2348 9.10911 95.2325 10.0397 95.9538 11.232C96.6905 12.4242 97.0588 13.7692 97.0588 15.2668C97.0588 16.7644 96.6905 18.1167 95.9538 19.3235C95.2171 20.5158 94.2195 21.4463 92.961 22.1152C91.7025 22.784 90.3135 23.1184 88.7941 23.1184ZM88.7941 19.7161C90.0833 19.7161 91.1116 19.3089 91.879 18.4947C92.6617 17.6805 93.0531 16.6045 93.0531 15.2668C93.0531 13.9146 92.6617 12.8386 91.879 12.0389C91.1116 11.2247 90.0833 10.8176 88.7941 10.8176C87.4895 10.8176 86.4458 11.2174 85.6631 12.0171C84.8957 12.8168 84.512 13.9 84.512 15.2668C84.512 16.619 84.8957 17.7023 85.6631 18.5165C86.4458 19.3162 87.4895 19.7161 88.7941 19.7161Z" fill="white"/>
<path d="M24.9002 10.4219C24.7966 9.37698 24.2902 8.40061 23.4724 7.66905C22.6547 6.93749 21.5795 6.49896 20.4411 6.43262C20.4264 6.63323 20.4003 6.833 20.363 7.0311C20.7718 7.21892 21.133 7.48397 21.4228 7.80893C21.7127 8.13389 21.9248 8.51144 22.0452 8.91693C22.1656 9.32242 22.1916 9.74671 22.1216 10.1621C22.0515 10.5774 21.887 10.9746 21.6387 11.3274C21.1666 12.1272 20.2011 13.4143 18.3174 14.8869C18.1775 14.9961 18.0326 15.1064 17.8827 15.2176C17.0449 15.8385 16.3308 16.3756 15.7183 16.8514C14.5646 17.7491 13.7822 18.4288 13.2482 19.0366L13.2527 19.0445C12.5318 19.8198 12.1264 20.8014 12.1058 21.8214C12.0853 22.8413 12.4509 23.8361 13.14 24.6354C13.2449 24.429 13.4426 24.1327 13.8159 23.7493C13.8903 23.6745 13.9713 23.5933 14.0599 23.5099C14.7452 22.8684 17.2584 20.8366 19.4032 19.0393C19.6 18.8747 19.7929 18.7126 19.9819 18.553C20.8746 17.797 21.6582 17.1159 22.1593 16.6375C23.7957 15.0728 25.1963 12.9153 24.9002 10.4219Z" fill="url(#paint0_linear_956_119)"/>
<path d="M20.4384 6.06964C20.4385 5.20187 20.1595 4.35346 19.6365 3.63124C19.1135 2.90903 18.3698 2.34531 17.4991 2.01109C16.6284 1.67686 15.6697 1.58708 14.7437 1.75303C13.8176 1.91899 12.9657 2.33327 12.2951 2.9437C12.2951 2.9437 13.85 2.35971 14.3992 2.25841C14.9484 2.15711 15.5189 2.25139 15.9955 2.52219C16.472 2.79298 16.819 3.2201 16.9663 3.71718C17.1136 4.21427 17.0501 4.74425 16.7889 5.19998C16.773 5.22728 16.7567 5.25421 16.7397 5.28077C16.6626 5.38979 16.5793 5.49493 16.49 5.59572C16.0337 6.12276 14.8799 7.27895 12.2544 9.15743C11.6912 9.56028 11.0612 9.99568 10.3549 10.4666C8.78509 11.5106 7.31211 12.5033 5.99611 13.4908C3.37347 15.4606 1.37425 17.4094 0.478349 19.7049C-0.013321 20.8678 -0.128975 22.1367 0.145316 23.3587C0.419607 24.5806 1.07215 25.7036 2.02434 26.5924C2.97653 27.4811 4.18777 28.0977 5.51217 28.3678C6.83656 28.638 8.21764 28.5502 9.48905 28.1151C9.48905 28.1151 8.68434 28.2531 7.57985 28.0663C7.01665 27.971 6.46119 27.7235 6.0232 27.4953C5.58522 27.2672 5.21081 26.9486 4.92947 26.5648C4.64813 26.1809 4.46755 25.7421 4.40195 25.2831C4.38812 25.1021 4.37958 24.9259 4.37755 24.7527C4.34664 22.3749 5.51624 20.6382 11.1194 16.7955C11.6218 16.4514 12.1602 16.0898 12.7347 15.7108C12.9771 15.5502 13.2264 15.3865 13.4826 15.2197C14.4167 14.6151 15.3069 13.9551 16.1475 13.2439C16.5382 12.911 16.895 12.5839 17.2179 12.2624C17.5481 11.9351 17.845 11.6149 18.1126 11.3034C19.6214 9.54084 20.174 8.04239 20.3627 7.0332C20.4001 6.8351 20.4262 6.63533 20.4408 6.43472H20.4217C20.4327 6.3139 20.4384 6.19158 20.4384 6.06964Z" fill="url(#paint1_linear_956_119)"/>
<defs>
<linearGradient id="paint0_linear_956_119" x1="18.5225" y1="6.43262" x2="18.5225" y2="24.6354" gradientUnits="userSpaceOnUse">
<stop stop-color="#304FFD"/>
<stop offset="1" stop-color="#74E6FF"/>
</linearGradient>
<linearGradient id="paint1_linear_956_119" x1="10.2204" y1="1.67187" x2="10.2204" y2="28.5213" gradientUnits="userSpaceOnUse">
<stop stop-color="#304FFD"/>
<stop offset="1" stop-color="#74E6FF"/>
</linearGradient>
</defs>
</svg>
