<svg width="80" height="80" viewBox="0 0 80 80" fill="none" xmlns="http://www.w3.org/2000/svg">
<path d="M11 11V69H69V11H11ZM59.1866 24.7362L56.0795 27.7138C55.8076 27.921 55.6781 28.2576 55.7299 28.5812V50.4996C55.6781 50.8362 55.8076 51.1728 56.0795 51.367L59.1219 54.3446V55.0049H43.8451V54.3705L46.9911 51.3152C47.3018 51.0045 47.3018 50.9138 47.3018 50.4478V32.7241L38.55 54.9402H37.3719L27.183 32.7241V47.6125C27.0924 48.2339 27.3125 48.8683 27.7527 49.3214L31.8438 54.2799V54.9402H20.2179V54.2799L24.3089 49.3214C24.7491 48.8683 24.9433 48.2339 24.8397 47.6125V30.3937C24.8915 29.9147 24.7103 29.4487 24.3478 29.125L20.7098 24.7362V24.0759H32.0121L40.7379 43.2366L48.4152 24.0888H59.1866V24.7362Z" fill="white"/>
</svg>
