<svg width="32" height="32" viewBox="0 0 32 32" fill="none" xmlns="http://www.w3.org/2000/svg">
<path d="M5.3335 8.00008C5.3335 7.64646 5.47397 7.30732 5.72402 7.05727C5.97407 6.80722 6.31321 6.66675 6.66683 6.66675H25.3335C25.6871 6.66675 26.0263 6.80722 26.2763 7.05727C26.5264 7.30732 26.6668 7.64646 26.6668 8.00008C26.6668 8.3537 26.5264 8.69284 26.2763 8.94289C26.0263 9.19294 25.6871 9.33341 25.3335 9.33341H6.66683C6.31321 9.33341 5.97407 9.19294 5.72402 8.94289C5.47397 8.69284 5.3335 8.3537 5.3335 8.00008Z" fill="#F4F9FD"/>
<path d="M5.3335 24.0001C5.3335 23.6465 5.47397 23.3073 5.72402 23.0573C5.97407 22.8072 6.31321 22.6667 6.66683 22.6667H25.3335C25.6871 22.6667 26.0263 22.8072 26.2763 23.0573C26.5264 23.3073 26.6668 23.6465 26.6668 24.0001C26.6668 24.3537 26.5264 24.6928 26.2763 24.9429C26.0263 25.1929 25.6871 25.3334 25.3335 25.3334H6.66683C6.31321 25.3334 5.97407 25.1929 5.72402 24.9429C5.47397 24.6928 5.3335 24.3537 5.3335 24.0001Z" fill="#F4F9FD"/>
<path d="M14.6668 14.6667C14.3132 14.6667 13.9741 14.8072 13.724 15.0573C13.474 15.3073 13.3335 15.6465 13.3335 16.0001C13.3335 16.3537 13.474 16.6928 13.724 16.9429C13.9741 17.1929 14.3132 17.3334 14.6668 17.3334H25.3335C25.6871 17.3334 26.0263 17.1929 26.2763 16.9429C26.5264 16.6928 26.6668 16.3537 26.6668 16.0001C26.6668 15.6465 26.5264 15.3073 26.2763 15.0573C26.0263 14.8072 25.6871 14.6667 25.3335 14.6667H14.6668Z" fill="#F4F9FD"/>
</svg>
