<svg width="60" height="20" viewBox="0 0 60 20" fill="none" xmlns="http://www.w3.org/2000/svg">
<path d="M0.184 19H3.736V12.688H6.112C9.928 12.688 12.976 10.864 12.976 6.808C12.976 2.608 9.952 1.24 6.016 1.24H0.184V19ZM3.736 9.88V4.048H5.752C8.2 4.048 9.496 4.744 9.496 6.808C9.496 8.848 8.32 9.88 5.872 9.88H3.736ZM18.1919 11.68L18.7199 9.736C19.2479 7.888 19.7759 5.872 20.2319 3.928H20.3279C20.8559 5.848 21.3359 7.888 21.8879 9.736L22.4159 11.68H18.1919ZM24.4319 19H28.1519L22.4399 1.24H18.2639L12.5759 19H16.1759L17.4239 14.44H23.1839L24.4319 19ZM32.9056 19H37.1296L42.5776 1.24H38.9776L36.6736 9.88C36.1216 11.848 35.7136 13.624 35.1616 15.616H35.0416C34.4656 13.624 34.1056 11.848 33.5536 9.88L31.2016 1.24H27.4816L32.9056 19ZM51.3963 19.336C56.1003 19.336 59.3403 15.808 59.3403 10.048C59.3403 4.288 56.1003 0.904 51.3963 0.904C46.6923 0.904 43.4523 4.264 43.4523 10.048C43.4523 15.808 46.6923 19.336 51.3963 19.336ZM51.3963 16.264C48.7563 16.264 47.0763 13.84 47.0763 10.048C47.0763 6.232 48.7563 3.952 51.3963 3.952C54.0363 3.952 55.7162 6.232 55.7162 10.048C55.7162 13.84 54.0363 16.264 51.3963 16.264Z" fill="white"/>
</svg>
