<svg width="114" height="30" viewBox="0 0 114 30" fill="none" xmlns="http://www.w3.org/2000/svg">
<path d="M21.9382 10.3212C21.9382 11.9729 21.5591 13.4892 20.801 14.8701C20.0428 16.2239 18.8785 17.3206 17.3081 18.1599C15.7376 18.9993 13.7881 19.419 11.4594 19.419H7.15422V29.6541H0.208984V1.1421H11.4594C13.7339 1.1421 15.6564 1.53471 17.2268 2.31994C18.7973 3.10517 19.9751 4.18825 20.7604 5.56917C21.5456 6.9501 21.9382 8.5341 21.9382 10.3212ZM10.9314 13.8953C12.2582 13.8953 13.2465 13.5839 13.8964 12.9612C14.5462 12.3384 14.8711 11.4584 14.8711 10.3212C14.8711 9.18394 14.5462 8.30394 13.8964 7.68118C13.2465 7.05841 12.2582 6.74702 10.9314 6.74702H7.15422V13.8953H10.9314Z" fill="white"/>
<path d="M43.3029 24.6178H32.6616L30.9558 29.6541H23.6856L34.0019 1.1421H42.0438L52.3601 29.6541H45.0087L43.3029 24.6178ZM41.5158 19.2566L37.9822 8.81841L34.4893 19.2566H41.5158Z" fill="white"/>
<path d="M82.2654 1.1421L72.1522 29.6541H63.4605L53.3472 1.1421H60.7392L67.8063 22.6683L74.914 1.1421H82.2654Z" fill="white"/>
<path d="M98.6524 29.9384C95.9718 29.9384 93.5078 29.3156 91.2604 28.0701C89.0401 26.8246 87.2666 25.0916 85.9398 22.8713C84.6401 20.6239 83.9903 18.1058 83.9903 15.3169C83.9903 12.5279 84.6401 10.0233 85.9398 7.80302C87.2666 5.58271 89.0401 3.84979 91.2604 2.60425C93.5078 1.35871 95.9718 0.735943 98.6524 0.735943C101.333 0.735943 103.784 1.35871 106.004 2.60425C108.251 3.84979 110.011 5.58271 111.284 7.80302C112.584 10.0233 113.233 12.5279 113.233 15.3169C113.233 18.1058 112.584 20.6239 111.284 22.8713C109.984 25.0916 108.224 26.8246 106.004 28.0701C103.784 29.3156 101.333 29.9384 98.6524 29.9384ZM98.6524 23.6024C100.927 23.6024 102.741 22.8443 104.095 21.3279C105.476 19.8116 106.166 17.8079 106.166 15.3169C106.166 12.7987 105.476 10.795 104.095 9.30579C102.741 7.78948 100.927 7.03133 98.6524 7.03133C96.3509 7.03133 94.5097 7.77594 93.1287 9.26517C91.7749 10.7544 91.098 12.7716 91.098 15.3169C91.098 17.835 91.7749 19.8523 93.1287 21.3686C94.5097 22.8578 96.3509 23.6024 98.6524 23.6024Z" fill="white"/>
</svg>
