<svg width="80" height="80" viewBox="0 0 80 80" fill="none" xmlns="http://www.w3.org/2000/svg">
<path d="M40 8C22.3226 8 8 22.3226 8 40C8 57.6774 22.3226 72 40 72C57.6774 72 72 57.6774 72 40C72 22.3226 57.6774 8 40 8ZM55.7161 29.9226L50.4645 54.671C50.0774 56.4258 49.0323 56.8516 47.5742 56.0258L39.5742 50.129L35.7161 53.8452C35.2903 54.271 34.929 54.6323 34.1032 54.6323L34.671 46.4903L49.4968 33.0968C50.1419 32.529 49.3548 32.2065 48.5032 32.7742L30.1806 44.3097L22.2839 41.8452C20.5677 41.3032 20.529 40.129 22.6452 39.3032L53.4968 27.4065C54.929 26.8903 56.1806 27.7548 55.7161 29.9226Z" fill="#6E708C"/>
</svg>
