<svg width="80" height="80" viewBox="0 0 80 80" fill="none" xmlns="http://www.w3.org/2000/svg">
<path d="M40 8C22.3286 8 8 22.3286 8 40C8 57.6714 22.3286 72 40 72C57.6714 72 72 57.6714 72 40C72 22.3286 57.6714 8 40 8ZM55.3786 32.1214C55.4 32.4571 55.4 32.8071 55.4 33.15C55.4 43.6357 47.4143 55.7143 32.8214 55.7143C28.3214 55.7143 24.15 54.4071 20.6357 52.1571C21.2786 52.2286 21.8929 52.2571 22.55 52.2571C26.2643 52.2571 29.6786 51 32.4 48.8714C28.9143 48.8 25.9857 46.5143 24.9857 43.3714C26.2071 43.55 27.3071 43.55 28.5643 43.2286C24.9357 42.4929 22.2143 39.3 22.2143 35.4429V35.3429C23.2643 35.9357 24.5 36.3 25.7929 36.35C23.5857 34.8786 22.2571 32.4 22.2571 29.75C22.2571 28.2714 22.6429 26.9214 23.3357 25.75C27.2429 30.5643 33.1143 33.7071 39.6929 34.0429C38.5714 28.65 42.6 24.2857 47.4429 24.2857C49.7286 24.2857 51.7857 25.2429 53.2357 26.7857C55.0286 26.45 56.7429 25.7786 58.2714 24.8786C57.6786 26.7143 56.4357 28.2643 54.7857 29.2429C56.3857 29.0714 57.9286 28.6286 59.3571 28.0071C58.2786 29.5929 56.9286 31 55.3786 32.1214Z" fill="white"/>
</svg>
